<?xml version="1.0" encoding="utf-8"?><svg id="Layer_1" data-name="Layer 1" xmlns="http://www.w3.org/2000/svg" xmlns:xlink="http://www.w3.org/1999/xlink" viewBox="0 0 248.25 87.98"><defs><style>.cls-1{fill:none;}.cls-2{clip-path:url(#clip-path);}.cls-3{fill:#231f20;}.cls-4{fill:#388c55;}</style><clipPath id="clip-path"><rect class="cls-1" x="1.67" y="1.52" width="85.42" height="85.42"/></clipPath></defs><title>Artboard 1</title><g class="cls-2"><path class="cls-3" d="M44.38,86.94A42.71,42.71,0,1,1,87.09,44.23,42.76,42.76,0,0,1,44.38,86.94Zm0-84.42A41.71,41.71,0,1,0,86.09,44.23,41.76,41.76,0,0,0,44.38,2.52Z"/><path class="cls-3" d="M44.38,78.31A34.08,34.08,0,1,1,78.46,44.23,34.12,34.12,0,0,1,44.38,78.31Zm0-67.31A33.23,33.23,0,1,0,77.61,44.23,33.27,33.27,0,0,0,44.38,11Z"/><path class="cls-3" d="M44.38,76.17A31.94,31.94,0,1,1,76.31,44.23,32,32,0,0,1,44.38,76.17Zm0-63A31.09,31.09,0,1,0,75.46,44.23,31.12,31.12,0,0,0,44.38,13.15Z"/><path class="cls-4" d="M62.81,65l-.15.17,0,0s0,0,0,.07.09-.17.13-.26Z"/><path class="cls-4" d="M62.7,65.29a.49.49,0,0,1,0,.15.67.67,0,0,1,0,.28v0l.24.2,0-.09c0-.06,0-.13.05-.21v-.08l.84.67.2-.24-1.23-1c0,.09-.09.17-.13.26"/><path class="cls-4" d="M65.61,63l-.71-.57-.2.25.71.57c.16.13.2.21.21.26a.31.31,0,0,1-.1.24.41.41,0,0,1-.14.1.23.23,0,0,1-.14,0,.76.76,0,0,1-.22-.14l-.71-.57-.2.25.71.57a1.14,1.14,0,0,0,.34.2l.14,0a.39.39,0,0,0,.18,0,.72.72,0,0,0,.29-.22.71.71,0,0,0,.17-.35.51.51,0,0,0-.07-.3.83.83,0,0,0-.26-.28"/><path class="cls-4" d="M69.15,59.38a.17.17,0,0,1-.17.06,1,1,0,0,1-.38-.22.92.92,0,0,1-.31-.35.14.14,0,0,1,0-.15.17.17,0,0,1,.14-.06h0c.06,0,.17.05.4.22s.28.28.29.33,0,.13,0,.17m-.08-.74a1.72,1.72,0,0,0-.3-.2.86.86,0,0,0-.25-.07.45.45,0,0,0-.23,0,.52.52,0,0,0-.3.44.66.66,0,0,0,.1.31,1.8,1.8,0,0,0,.31.31,1,1,0,0,0,.59.28h0a.46.46,0,0,0,.37-.18.43.43,0,0,0,.11-.3.47.47,0,0,0-.11-.3,1.42,1.42,0,0,0-.3-.32"/><path class="cls-4" d="M68.33,60.07a2.55,2.55,0,0,1-.25-.46,1.91,1.91,0,0,1-.13-.44v0L67.76,59l-.67.81.24.2.4-.49a1.45,1.45,0,0,0,.11.31,2.51,2.51,0,0,0,.26.45,1.34,1.34,0,0,0,.3.32l0,0,.19-.24,0,0a1.83,1.83,0,0,1-.27-.3"/><path class="cls-4" d="M70,58.65a1.16,1.16,0,0,1-.26-.29,3.47,3.47,0,0,1-.27-.46,4,4,0,0,1-.13-.44v0l-.18-.14-.67.81.24.19.4-.48a2.33,2.33,0,0,0,.11.31,2.51,2.51,0,0,0,.26.45,1.56,1.56,0,0,0,.29.32l.06,0L70,58.7Z"/><path class="cls-4" d="M64.4,65.19a.17.17,0,0,1-.1.07.16.16,0,0,1-.12,0,.27.27,0,0,1-.11,0,.21.21,0,0,1,0-.31.26.26,0,0,1,.16-.09h0a.24.24,0,0,1,.15.06.24.24,0,0,1,.09.15.28.28,0,0,1,0,.16m-.58-.46a.16.16,0,0,1-.12.06h0a.13.13,0,0,1-.11,0,.14.14,0,0,1-.06-.1.19.19,0,0,1,0-.12.14.14,0,0,1,.11-.06h0a.15.15,0,0,1,.11,0,.21.21,0,0,1,.06.1.17.17,0,0,1,0,.12m.47-.2a.39.39,0,0,0-.15,0,.3.3,0,0,0,0-.1.3.3,0,0,0-.13-.19.46.46,0,0,0-.33-.09.47.47,0,0,0-.32.19.41.41,0,0,0-.11.34.38.38,0,0,0,.16.3.43.43,0,0,0,.21.09h.1a.23.23,0,0,0,0,.14.4.4,0,0,0,.16.24.49.49,0,0,0,.32.12h.06a.51.51,0,0,0,.36-.2.5.5,0,0,0,.13-.39.44.44,0,0,0-.19-.34.46.46,0,0,0-.26-.11"/><path class="cls-4" d="M67.5,60.88l-.26.2,0,.05a.42.42,0,0,1,.11.25.35.35,0,0,1-.09.23.43.43,0,0,1-.17.12l-.1,0a.27.27,0,0,1-.12,0,.7.7,0,0,1-.27-.14,1.12,1.12,0,0,1-.18-.2.42.42,0,0,1-.06-.21.43.43,0,0,1,.1-.23.23.23,0,0,1,.17-.11.33.33,0,0,1,.23,0l.06,0,.14-.29-.07,0a.62.62,0,0,0-.76.19.62.62,0,0,0-.16.36.57.57,0,0,0,0,.38.85.85,0,0,0,.27.34,1.27,1.27,0,0,0,.38.2l.21,0a.63.63,0,0,0,.19,0,.66.66,0,0,0,.34-.25.64.64,0,0,0,.16-.41.74.74,0,0,0-.16-.43Z"/><path class="cls-4" d="M66.65,62.09a.46.46,0,0,0-.24-.1.48.48,0,0,0-.27.06,1.35,1.35,0,0,0-.28.19.72.72,0,0,1-.23.14.16.16,0,0,1-.09,0,.12.12,0,0,1,0-.1.32.32,0,0,1,.09-.19.37.37,0,0,1,.17-.13.25.25,0,0,1,.18,0l0,0,.18-.26,0,0a.49.49,0,0,0-.26-.1.52.52,0,0,0-.27.05.91.91,0,0,0-.24.2.6.6,0,0,0-.14.26.61.61,0,0,0,0,.27.52.52,0,0,0,.14.21.54.54,0,0,0,.22.09.66.66,0,0,0,.23,0,1.37,1.37,0,0,0,.26-.17,1.64,1.64,0,0,1,.21-.14.19.19,0,0,1,.11,0,.13.13,0,0,1,.08,0,.14.14,0,0,1,.05.08.2.2,0,0,1,0,.11.6.6,0,0,1-.09.15.42.42,0,0,1-.15.12.3.3,0,0,1-.14,0L66,62.78l-.06,0-.17.26,0,0a.56.56,0,0,0,.29.12h.06a.42.42,0,0,0,.24-.07.8.8,0,0,0,.28-.22.92.92,0,0,0,.14-.28.57.57,0,0,0,0-.29.51.51,0,0,0-.15-.21"/><path class="cls-4" d="M57.85,60.79l-7.13-7.17L52.31,52l2.88,2.89,2.65-2.64L55,49.39l1.6-1.58L63.69,55l-1.6,1.6-2.73-2.75-2.65,2.63,2.73,2.75Zm-.78-36,1.57,1.62-2.79,2.69,2.59,2.68,2.79-2.69,1.56,1.63-7.27,7L54,36.16l2.94-2.85-2.6-2.68-2.94,2.84L49.8,31.85ZM37.13,33.47,34.2,30.63l-2.6,2.68,2.94,2.85L33,37.78l-7.27-7,1.56-1.63,2.79,2.69,2.59-2.68-2.78-2.69,1.56-1.62,7.28,7ZM30.89,60.79l-1.6-1.59L32,56.45l-2.64-2.63-2.74,2.75L25.05,55l7.13-7.16,1.6,1.58-2.89,2.9,2.65,2.64L36.42,52,38,53.62Zm32.35,1.37v0a1.71,1.71,0,0,0,.07-.18,6,6,0,0,1,3.07-3.67,6.11,6.11,0,0,0,3.12-5.1c.08-1.6-.38-4.66-4.38-7.3-2-1.64-4.62-1.92-9.69-1.92l-2.89,0H51a.3.3,0,0,1-.13,0,.6.6,0,0,1-.63-.56c0-.28.19-.61.82-.68.23,0,.74,0,1.43-.05a42.24,42.24,0,0,0,9.28-1c4-1.38,6.73-4.58,7-8.12a6.55,6.55,0,0,0-3.83-6.46,7.52,7.52,0,0,1-4.36-4.46,6.35,6.35,0,0,0-5.68-3.34c-3.31,0-7.34,2.32-8.9,7.5a61.41,61.41,0,0,0-.88,9.81c0,.34-.38.76-.72.76s-.47-.27-.59-.77a16.27,16.27,0,0,1-.16-2.12,56.88,56.88,0,0,0-.75-7.64c-1.66-4.56-5.12-7.52-8.81-7.52A6.9,6.9,0,0,0,28.74,22a10.74,10.74,0,0,0-1.21,2c-.58,1.15-.92,1.85-4,3.42a7,7,0,0,0-3.53,6c.77,6.8,7.48,8.55,7.55,8.57s2.06.47,10,.82c.45.05.73.27.73.58a.69.69,0,0,1-.55.67,10.63,10.63,0,0,1-1.07,0H35L32.5,44a36.53,36.53,0,0,0-5.56.28,11.24,11.24,0,0,0-6.69,5,5.85,5.85,0,0,0-.83,4.7A6.78,6.78,0,0,0,21.93,58l.25.14a5.9,5.9,0,0,1,3.18,3.53,6.59,6.59,0,0,0,6.36,5c5.86-.2,8.42-5.38,9.54-9.7.2-1.31.4-2.41.59-3.48.11-.62.23-1.22.33-1.87a.61.61,0,0,1,.55-.35.44.44,0,0,1,.45.38c-1.07,11.53,1.29,16.46,2.3,18.56a7.56,7.56,0,0,1,.36.85l0,.07h5.07L50.82,71a26.13,26.13,0,0,1-3.35-5.76,33.14,33.14,0,0,1-2-13,1.4,1.4,0,0,1,.43-.91.49.49,0,0,1,.22-.06c.28,0,.42.37.42.37s.88,4,.89,4.62a13.9,13.9,0,0,0,3.52,7.62,8.73,8.73,0,0,0,6,2.88H57a6.35,6.35,0,0,0,4.89-2.29,7.49,7.49,0,0,0,1.37-2.28"/><path class="cls-3" d="M66.86,74.54l.12-.1a1.75,1.75,0,0,1,.29-.18,1,1,0,0,1,.32-.09.63.63,0,0,1,.3,0,.7.7,0,0,1,.28.22.62.62,0,0,1,.15.29.76.76,0,0,1,0,.3.94.94,0,0,1-.1.28,1.1,1.1,0,0,1-.2.23.87.87,0,0,1-.47.19.81.81,0,0,1-.5-.12l-.19.31a1.18,1.18,0,0,0,.7.15,1.23,1.23,0,0,0,.65-.29,1.21,1.21,0,0,0,.31-.33,1.49,1.49,0,0,0,.15-.4,1,1,0,0,0,0-.42,1,1,0,0,0-.21-.42.94.94,0,0,0-.54-.34,1,1,0,0,0-.59.09h0a.85.85,0,0,0,.17-.51.8.8,0,0,0-.2-.53.91.91,0,0,0-.32-.27.81.81,0,0,0-.37-.09,1,1,0,0,0-.38.07,1.43,1.43,0,0,0-.36.2,1.3,1.3,0,0,0-.37.48,1.19,1.19,0,0,0-.06.6l.34-.06a.77.77,0,0,1,0-.43.69.69,0,0,1,.24-.33.89.89,0,0,1,.25-.14.74.74,0,0,1,.26,0,.66.66,0,0,1,.47.25.57.57,0,0,1,.14.28.5.5,0,0,1,0,.27A.83.83,0,0,1,67,74a1.25,1.25,0,0,1-.23.23l-.12.1Zm-2.28-.63-1.53,1,1,1.57a1.5,1.5,0,0,1,.51-.57,1.21,1.21,0,0,1,.33-.15.93.93,0,0,1,.33,0,.76.76,0,0,1,.31.13.92.92,0,0,1,.26.26,1,1,0,0,1,.13.32.85.85,0,0,1-.12.62,1,1,0,0,1-.25.24.75.75,0,0,1-.44.12.8.8,0,0,1-.44-.13l-.19.3a1.13,1.13,0,0,0,.61.17,1.19,1.19,0,0,0,.65-.21,1.2,1.2,0,0,0,.36-.35,1,1,0,0,0,.17-.41,1.19,1.19,0,0,0,0-.46,1.34,1.34,0,0,0-.2-.44,1.3,1.3,0,0,0-.32-.34,1.05,1.05,0,0,0-.4-.16.94.94,0,0,0-.44,0,1.23,1.23,0,0,0-.43.18,1.56,1.56,0,0,0-.2.16,1,1,0,0,0-.17.19L63.51,75l1.25-.82Zm-1.84,2.8a.74.74,0,0,1,0,.3.82.82,0,0,1-.14.28,1.09,1.09,0,0,1-.26.21.87.87,0,0,1-.32.11.65.65,0,0,1-.31,0,.76.76,0,0,1-.26-.15.78.78,0,0,1-.21-.26.89.89,0,0,1-.11-.31.8.8,0,0,1,0-.31.59.59,0,0,1,.14-.27.76.76,0,0,1,.25-.22.94.94,0,0,1,.31-.1.8.8,0,0,1,.31,0,.87.87,0,0,1,.27.14.75.75,0,0,1,.21.26.72.72,0,0,1,.11.31m-.05,2.59.37-.21.08-1.86a2.9,2.9,0,0,0,0-.51,1.35,1.35,0,0,0-.17-.5,1.31,1.31,0,0,0-.3-.36,1,1,0,0,0-.39-.19,1,1,0,0,0-.43,0,1.33,1.33,0,0,0-.45.15,1.61,1.61,0,0,0-.37.3,1.06,1.06,0,0,0-.21.39.88.88,0,0,0,0,.43,1.21,1.21,0,0,0,.15.44,1.31,1.31,0,0,0,.29.36,1.08,1.08,0,0,0,.79.22,1.39,1.39,0,0,0,.42-.14l.23-.17a.5.5,0,0,0,.15-.2h0ZM59.24,77l-.3.14-.51,1.07.31.14.36-.78,1.33,2.85.33-.15Zm-5.38,2.38.69-.23a1.87,1.87,0,0,1,.72-.09,1.35,1.35,0,0,1,.58.16,1.47,1.47,0,0,1,.43.35,1.77,1.77,0,0,1,.26.49,1.46,1.46,0,0,1,.07.55,1.27,1.27,0,0,1-.14.54,1.35,1.35,0,0,1-.37.47,1.85,1.85,0,0,1-.64.34l-.69.22Zm.66,3.23,1.14-.37a2.23,2.23,0,0,0,.61-.32,1.76,1.76,0,0,0,.47-.51,1.69,1.69,0,0,0,.25-.67,1.75,1.75,0,0,0-.08-.8,1.81,1.81,0,0,0-.41-.69,1.7,1.7,0,0,0-.59-.41,2,2,0,0,0-.68-.13,2.15,2.15,0,0,0-.68.1l-1.14.37Zm-3.05-1.09,1.71-.37-.07-.32-1.71.37L51.14,80,53,79.6l-.07-.32-2.19.47.77,3.52,2.24-.48-.07-.32-1.88.41ZM49.2,80.31l1.19-.17,0-.32-2.75.38,0,.32,1.2-.16.45,3.24.36,0Zm-2.87.35.87,1.89-1.59.06ZM45.49,83l1.86-.07.43.93.41,0-1.68-3.54h-.36l-1.42,3.66h.4Zm-3-2.37.65,0a2,2,0,0,1,.37.05.91.91,0,0,1,.28.12A.6.6,0,0,1,44,81a.56.56,0,0,1,.05.3.53.53,0,0,1-.26.47,1.21,1.21,0,0,1-.68.14l-.64,0Zm-.06,1.6.61,0L44,83.92l.45,0-1-1.76a1.06,1.06,0,0,0,.37-.07,1.26,1.26,0,0,0,.3-.18,1,1,0,0,0,.29-.64,1.06,1.06,0,0,0-.08-.45.78.78,0,0,0-.24-.3,1.17,1.17,0,0,0-.39-.18,1.87,1.87,0,0,0-.49-.07l-1.05,0L42,83.85h.37Zm-1.62.4a1.33,1.33,0,0,1-.36.45,1.26,1.26,0,0,1-.51.27,1.37,1.37,0,0,1-.64,0,1.53,1.53,0,0,1-.6-.21,1.31,1.31,0,0,1-.41-.4,1.48,1.48,0,0,1-.23-.53,2.07,2.07,0,0,1,0-.61,1.65,1.65,0,0,1,.19-.58,1.47,1.47,0,0,1,.36-.46,1.56,1.56,0,0,1,.51-.27,1.51,1.51,0,0,1,.64,0,1.43,1.43,0,0,1,.6.21,1.49,1.49,0,0,1,.42.41,1.65,1.65,0,0,1,.22.53A1.78,1.78,0,0,1,41,82a1.65,1.65,0,0,1-.19.58m.53-1.3a1.84,1.84,0,0,0-.3-.65,2.06,2.06,0,0,0-.54-.47,1.86,1.86,0,0,0-.72-.24A1.72,1.72,0,0,0,39,80a1.84,1.84,0,0,0-.65.3,1.87,1.87,0,0,0-.47.54,2,2,0,0,0-.21,1.5,1.8,1.8,0,0,0,.84,1.12,1.87,1.87,0,0,0,.72.25,2.14,2.14,0,0,0,.76,0,1.81,1.81,0,0,0,.64-.31,1.64,1.64,0,0,0,.47-.54,1.92,1.92,0,0,0,.25-.73,1.8,1.8,0,0,0,0-.77m-5.58-1.71.6.14A1.21,1.21,0,0,1,37,80a.53.53,0,0,1,.1.53.56.56,0,0,1-.33.42,1.1,1.1,0,0,1-.68,0l-.6-.15Zm-1.14,3.1.36.09.4-1.63.62.15a1.52,1.52,0,0,0,.5.06,1.08,1.08,0,0,0,.42-.08.79.79,0,0,0,.31-.23,1,1,0,0,0,.19-.39,1.11,1.11,0,0,0,0-.44,1,1,0,0,0-.17-.35,1.23,1.23,0,0,0-.33-.26,2.56,2.56,0,0,0-.47-.18l-1-.24ZM33,78.75l.62.2a1.6,1.6,0,0,1,.35.15.73.73,0,0,1,.23.19.58.58,0,0,1,.12.25.81.81,0,0,1,0,.3.57.57,0,0,1-.38.39,1.26,1.26,0,0,1-.7-.06l-.6-.2Zm-.49,1.52.58.19.43,1.91.42.14-.47-2a1.25,1.25,0,0,0,.38,0,.9.9,0,0,0,.33-.09.71.71,0,0,0,.27-.21.92.92,0,0,0,.18-.32,1,1,0,0,0,.06-.46,1,1,0,0,0-.16-.36,1.1,1.1,0,0,0-.32-.28,2.34,2.34,0,0,0-.45-.2l-1-.33-1.11,3.43.35.11Zm-1.67-.06a1.4,1.4,0,0,1-1,.46,1.45,1.45,0,0,1-.63-.13,1.53,1.53,0,0,1-.52-.37,1.49,1.49,0,0,1-.29-.5,1.54,1.54,0,0,1-.07-.57,1.56,1.56,0,0,1,.15-.59,1.72,1.72,0,0,1,.33-.51,1.41,1.41,0,0,1,.47-.34,1.38,1.38,0,0,1,1.19,0,1.42,1.42,0,0,1,.52.36,1.38,1.38,0,0,1,.29.51,1.36,1.36,0,0,1,.07.57,1.75,1.75,0,0,1-.14.59,1.82,1.82,0,0,1-.34.51m.87-1.11a1.82,1.82,0,0,0-.13-.7,1.74,1.74,0,0,0-.38-.6,1.9,1.9,0,0,0-.63-.43,2,2,0,0,0-.74-.17,2,2,0,0,0-.7.12,1.94,1.94,0,0,0-.6.39,2.08,2.08,0,0,0-.44.64,2,2,0,0,0-.17.75,1.69,1.69,0,0,0,.12.71,1.94,1.94,0,0,0,.39.6,2,2,0,0,0,.62.43,2.26,2.26,0,0,0,.74.17,1.87,1.87,0,0,0,.71-.13,1.63,1.63,0,0,0,.6-.39,1.9,1.9,0,0,0,.43-.63,2.16,2.16,0,0,0,.18-.76M27.05,79a1.2,1.2,0,0,1-.61.13,1.46,1.46,0,0,1-.57-.18,1.53,1.53,0,0,1-.49-.41,1.48,1.48,0,0,1-.24-.53,1.62,1.62,0,0,1,0-.58,1.84,1.84,0,0,1,.21-.58,1.57,1.57,0,0,1,.38-.47A1.44,1.44,0,0,1,26.79,76a1.49,1.49,0,0,1,.61.19,1.79,1.79,0,0,1,.26.2,1.37,1.37,0,0,1,.19.23,1.34,1.34,0,0,1,.12.24.93.93,0,0,1,0,.22l.38,0a.9.9,0,0,0-.09-.32,1.34,1.34,0,0,0-.17-.31,2.27,2.27,0,0,0-.26-.28,1.81,1.81,0,0,0-.32-.22,1.92,1.92,0,0,0-.72-.24,1.87,1.87,0,0,0-.71,0,1.86,1.86,0,0,0-1.13.92,1.88,1.88,0,0,0-.2,1.45,1.74,1.74,0,0,0,.33.63,1.85,1.85,0,0,0,.58.49,1.76,1.76,0,0,0,.42.17,1.44,1.44,0,0,0,.4.06,1.5,1.5,0,0,0,.37,0,1.52,1.52,0,0,0,.32-.12Zm-3.64-5.61L23,73.1l-2.05,3,.3.21L23,73.72h0l0,3.74.38.26,2.05-3-.3-.21-1.75,2.52h0Zm-1-.79-.29-.23-2.26,2.8.29.23Z"/></g><path class="cls-3" d="M104.43,18.86v14h-3.84v-14H97.41V15.53h10.21v3.33Z"/><path class="cls-3" d="M109.62,32.85V15.53H118V19h-4.63v3.4h4.26v3.23h-4.26v3.72h4.92v3.52Z"/><path class="cls-3" d="M128.56,32.85l-4-10.54h-.08l.1,10.54h-3.5V15.53h4.31l4,10.69h.08l-.08-10.69h3.38V32.85Z"/><path class="cls-3" d="M143.55,32.85l-4-10.54h-.07l.1,10.54h-3.5V15.53h4.3l4,10.69h.08l-.08-10.69h3.38V32.85Z"/><path class="cls-3" d="M151.06,32.85V15.53h8.37V19h-4.62v3.4h4.26v3.23h-4.26v3.72h4.92v3.52Z"/><path class="cls-3" d="M169.68,19.67a3,3,0,0,0-1-.8,2.73,2.73,0,0,0-1.22-.28,1.83,1.83,0,0,0-1.18.42,1.62,1.62,0,0,0-.53,1.37,1.55,1.55,0,0,0,.54,1.26,8.41,8.41,0,0,0,1.59,1c.39.2.81.43,1.24.7a5.65,5.65,0,0,1,1.2,1,5.32,5.32,0,0,1,.9,1.41,5,5,0,0,1,.35,1.95,6.56,6.56,0,0,1-.44,2.47A4.9,4.9,0,0,1,168.17,33a5.83,5.83,0,0,1-2,.36,6.76,6.76,0,0,1-2.85-.59,7,7,0,0,1-2.07-1.37l2-2.93a4.65,4.65,0,0,0,1.3.94,3.49,3.49,0,0,0,1.49.35,1.65,1.65,0,0,0,1.2-.46,1.91,1.91,0,0,0-.1-2.66,8.57,8.57,0,0,0-1.71-1.06,10.7,10.7,0,0,1-1.33-.76,5,5,0,0,1-1.1-1,4.42,4.42,0,0,1-.75-1.37,5.7,5.7,0,0,1-.27-1.86,6,6,0,0,1,.48-2.49,4.85,4.85,0,0,1,1.25-1.7,5,5,0,0,1,1.71-1,5.7,5.7,0,0,1,1.9-.32,6.61,6.61,0,0,1,2.54.46,5.36,5.36,0,0,1,1.88,1.26Z"/><path class="cls-3" d="M181.45,19.67a3.06,3.06,0,0,0-1-.8,2.76,2.76,0,0,0-1.22-.28A1.86,1.86,0,0,0,178,19a1.64,1.64,0,0,0-.52,1.37,1.55,1.55,0,0,0,.54,1.26,7.8,7.8,0,0,0,1.59,1c.39.2.8.43,1.24.7a5.85,5.85,0,0,1,1.19,1,5.08,5.08,0,0,1,.9,1.41,4.85,4.85,0,0,1,.36,1.95,6.56,6.56,0,0,1-.44,2.47,5.09,5.09,0,0,1-1.2,1.76A5,5,0,0,1,179.94,33a5.92,5.92,0,0,1-2,.36,6.82,6.82,0,0,1-2.85-.59A7,7,0,0,1,173,31.36l2-2.93a4.65,4.65,0,0,0,1.3.94,3.49,3.49,0,0,0,1.49.35A1.63,1.63,0,0,0,179.47,28a1.71,1.71,0,0,0-.59-1.36,8.57,8.57,0,0,0-1.71-1.06,10.7,10.7,0,0,1-1.33-.76,5,5,0,0,1-1.11-1,4.62,4.62,0,0,1-.74-1.37,5.7,5.7,0,0,1-.27-1.86,6,6,0,0,1,.48-2.49,4.83,4.83,0,0,1,1.24-1.7,5.16,5.16,0,0,1,1.72-1,5.64,5.64,0,0,1,1.89-.32,6.62,6.62,0,0,1,2.55.46,5.36,5.36,0,0,1,1.88,1.26Z"/><path class="cls-3" d="M186.05,32.85V15.53h8.37V19h-4.63v3.4h4.26v3.23h-4.26v3.72h4.92v3.52Z"/><path class="cls-3" d="M197.5,32.85V15.53h8.37V19h-4.63v3.4h4.26v3.23h-4.26v3.72h4.92v3.52Z"/><path class="cls-3" d="M223.16,29.38v3.47h-3.47V29.38h-6.34V26.05l5.07-10.52h4.74V26.15h1.76v3.23Zm-3.4-10h0l-3,6.8h3Z"/><path class="cls-3" d="M226.81,27.55V24.63h4.7v2.92Z"/><path class="cls-3" d="M242.15,32.85V25.61h-4v7.24h-3.89V15.53h3.89v6.56h4V15.53H246V32.85Z"/><path class="cls-3" d="M103.69,42.93v4h4.72V50.8h-4.69v7.88H99.2V38.9h9.63v4Z"/><path class="cls-3" d="M126.21,48.74a16.34,16.34,0,0,1-.53,4.28,10.42,10.42,0,0,1-1.51,3.31,6.91,6.91,0,0,1-2.39,2.12,7,7,0,0,1-6.34,0,6.91,6.91,0,0,1-2.39-2.12A10.42,10.42,0,0,1,111.54,53a16.34,16.34,0,0,1-.53-4.28,16,16,0,0,1,.52-4.26A9.85,9.85,0,0,1,113,41.21a6.62,6.62,0,0,1,5.59-2.84,6.77,6.77,0,0,1,3.17.74,6.85,6.85,0,0,1,2.39,2.1,10.29,10.29,0,0,1,1.51,3.27A16,16,0,0,1,126.21,48.74Zm-4.58,0a13.67,13.67,0,0,0-.2-2.39,7.78,7.78,0,0,0-.57-1.92,3.6,3.6,0,0,0-.94-1.27,2,2,0,0,0-1.31-.46,2.11,2.11,0,0,0-1.33.46,3.5,3.5,0,0,0-1,1.27,7.38,7.38,0,0,0-.56,1.92,14.8,14.8,0,0,0-.18,2.39,15.2,15.2,0,0,0,.18,2.4,7.38,7.38,0,0,0,.56,1.92,3.67,3.67,0,0,0,1,1.29,2,2,0,0,0,1.33.47,1.94,1.94,0,0,0,1.31-.47,3.78,3.78,0,0,0,.94-1.29,7.78,7.78,0,0,0,.57-1.92A14,14,0,0,0,121.63,48.74Z"/><path class="cls-3" d="M142.14,54.43A7,7,0,0,1,141,56.92a5.58,5.58,0,0,1-2.09,1.67,7.14,7.14,0,0,1-3.1.62,6.91,6.91,0,0,1-3.07-.62,5.55,5.55,0,0,1-2.06-1.67,6.77,6.77,0,0,1-1.14-2.49,13,13,0,0,1-.35-3.07V38.9h4.5V51a12.61,12.61,0,0,0,.09,1.56,4.52,4.52,0,0,0,.35,1.25,2.18,2.18,0,0,0,.67.82,1.78,1.78,0,0,0,1.09.31,1.76,1.76,0,0,0,1.09-.31,2.18,2.18,0,0,0,.67-.82,3.92,3.92,0,0,0,.35-1.25,10.86,10.86,0,0,0,.1-1.56V38.9h4.47V51.36A12,12,0,0,1,142.14,54.43Z"/><path class="cls-3" d="M154.81,58.68l-4.58-12h-.09l.11,12h-4V38.9h4.92l4.55,12.21h.08l-.08-12.21h3.85V58.68Z"/><path class="cls-3" d="M177.15,48.85a15.4,15.4,0,0,1-.49,4,8.52,8.52,0,0,1-1.49,3.1,6.72,6.72,0,0,1-2.56,2,8.8,8.8,0,0,1-3.67.7h-5.56V38.9h5.56a9,9,0,0,1,3.67.7,6.58,6.58,0,0,1,2.56,2,8.59,8.59,0,0,1,1.49,3.13A15.78,15.78,0,0,1,177.15,48.85Zm-4.49,0a8.11,8.11,0,0,0-1-4.51A3.06,3.06,0,0,0,169,42.81h-1.09v12H169a3.08,3.08,0,0,0,2.64-1.52A7.93,7.93,0,0,0,172.66,48.85Z"/><path class="cls-3" d="M188.52,58.68l-.81-3.6h-4.44l-.81,3.6H178l4.8-19.78h5.62l4.78,19.78Zm-3-15.48h-.11l-1.68,8.41h3.38Z"/><path class="cls-3" d="M201.15,42.7v16h-4.39v-16h-3.63V38.9h11.65v3.8Z"/><path class="cls-3" d="M207.07,58.68V38.9h4.49V58.68Z"/><path class="cls-3" d="M229.75,48.74a15.92,15.92,0,0,1-.54,4.28,10.2,10.2,0,0,1-1.5,3.31,7,7,0,0,1-2.39,2.12,7,7,0,0,1-6.34,0,6.91,6.91,0,0,1-2.39-2.12A10.42,10.42,0,0,1,215.08,53a16.34,16.34,0,0,1-.53-4.28,16,16,0,0,1,.52-4.26,9.85,9.85,0,0,1,1.49-3.27,6.62,6.62,0,0,1,5.59-2.84,6.77,6.77,0,0,1,3.17.74,6.94,6.94,0,0,1,2.39,2.1,10.07,10.07,0,0,1,1.5,3.27A15.61,15.61,0,0,1,229.75,48.74Zm-4.58,0a13.67,13.67,0,0,0-.2-2.39,7.78,7.78,0,0,0-.57-1.92,3.6,3.6,0,0,0-.94-1.27,2,2,0,0,0-1.31-.46,2.11,2.11,0,0,0-1.33.46,3.5,3.5,0,0,0-.95,1.27,7.38,7.38,0,0,0-.56,1.92,14.8,14.8,0,0,0-.18,2.39,15.2,15.2,0,0,0,.18,2.4,7.38,7.38,0,0,0,.56,1.92,3.67,3.67,0,0,0,.95,1.29,2,2,0,0,0,1.33.47,1.94,1.94,0,0,0,1.31-.47,3.78,3.78,0,0,0,.94-1.29,7.78,7.78,0,0,0,.57-1.92A14,14,0,0,0,225.17,48.74Z"/><path class="cls-3" d="M241.28,58.68l-4.58-12h-.08l.11,12h-4V38.9h4.91l4.55,12.21h.09L242.2,38.9h3.86V58.68Z"/><path class="cls-3" d="M100.38,73.05H99.5V64.39h.88Z"/><path class="cls-3" d="M102.65,67.32c0,.16,0,.33,0,.52s0,.34,0,.46h0a1.89,1.89,0,0,1,.8-.81,2.27,2.27,0,0,1,1.16-.31,2,2,0,0,1,1.63.65,2.58,2.58,0,0,1,.55,1.71v3.51H106V69.88a4.18,4.18,0,0,0-.07-.82,1.77,1.77,0,0,0-.25-.63,1.28,1.28,0,0,0-.48-.41,1.67,1.67,0,0,0-.75-.15,1.63,1.63,0,0,0-1.2.55,2,2,0,0,0-.39.7,3,3,0,0,0-.15,1v2.94h-.83V68.58c0-.15,0-.35,0-.6s0-.46,0-.66Z"/><path class="cls-3" d="M110.87,73.05H110l-2.34-5.73h.93l1.86,4.85h0l1.87-4.85h.89Z"/><path class="cls-3" d="M119.21,70v.19a1.62,1.62,0,0,1,0,.21h-4.75a2.38,2.38,0,0,0,.17.8,2.06,2.06,0,0,0,.44.66,2.15,2.15,0,0,0,.66.45,2.08,2.08,0,0,0,.82.17,2,2,0,0,0,1.12-.3,2.17,2.17,0,0,0,.72-.69L119,72a3,3,0,0,1-1.13.93,3.17,3.17,0,0,1-2.51.06,2.73,2.73,0,0,1-.93-.63,3.06,3.06,0,0,1-.62-1,3.17,3.17,0,0,1-.23-1.2,3.29,3.29,0,0,1,.22-1.2,2.84,2.84,0,0,1,.62-1,2.75,2.75,0,0,1,.91-.63,2.86,2.86,0,0,1,1.14-.22,3,3,0,0,1,1.19.22,2.43,2.43,0,0,1,.85.62,2.55,2.55,0,0,1,.52.89A3.34,3.34,0,0,1,119.21,70Zm-.84-.26a2.09,2.09,0,0,0-.52-1.34,1.76,1.76,0,0,0-1.38-.54,1.8,1.8,0,0,0-.77.16,2,2,0,0,0-.62.41,2.07,2.07,0,0,0-.43.6,2,2,0,0,0-.19.71Z"/><path class="cls-3" d="M124,68.68a1.52,1.52,0,0,0-.55-.58,1.64,1.64,0,0,0-.85-.23,2.12,2.12,0,0,0-.44,0,1.59,1.59,0,0,0-.4.16,1,1,0,0,0-.27.28.78.78,0,0,0-.11.41.66.66,0,0,0,.34.61,2.91,2.91,0,0,0,1,.37,3.41,3.41,0,0,1,1.5.6,1.3,1.3,0,0,1,.49,1.07,1.57,1.57,0,0,1-.69,1.38,2,2,0,0,1-.69.3,3,3,0,0,1-.78.1,3.11,3.11,0,0,1-1.26-.27,2.34,2.34,0,0,1-1-.85l.66-.49a1.74,1.74,0,0,0,.65.64,1.8,1.8,0,0,0,.94.26,2.76,2.76,0,0,0,.51,0,1.29,1.29,0,0,0,.43-.17,1.14,1.14,0,0,0,.3-.32.93.93,0,0,0,.11-.47.74.74,0,0,0-.44-.68,5.8,5.8,0,0,0-1.25-.42l-.55-.15a1.77,1.77,0,0,1-.53-.27,1.44,1.44,0,0,1-.4-.45,1.26,1.26,0,0,1-.16-.67,1.6,1.6,0,0,1,.17-.75,1.53,1.53,0,0,1,.46-.52,2.28,2.28,0,0,1,.65-.3,3.22,3.22,0,0,1,.76-.09,2.63,2.63,0,0,1,1.16.27,1.84,1.84,0,0,1,.85.75Z"/><path class="cls-3" d="M129,68h-1.62v3.34a1.62,1.62,0,0,0,.07.53.88.88,0,0,0,.17.32.61.61,0,0,0,.28.16,1.22,1.22,0,0,0,.34,0,1.2,1.2,0,0,0,.36,0,1.4,1.4,0,0,0,.36-.13l0,.72a2.42,2.42,0,0,1-.46.13,2.82,2.82,0,0,1-.52,0,2.18,2.18,0,0,1-.49-.06,1.33,1.33,0,0,1-.48-.23,1.46,1.46,0,0,1-.36-.47,1.83,1.83,0,0,1-.14-.77V68h-1.18v-.7h1.18V65.71h.83v1.61H129Z"/><path class="cls-3" d="M131.32,65.12a.54.54,0,0,1-.18.42.57.57,0,0,1-.81,0,.58.58,0,0,1,0-.84.57.57,0,0,1,.81,0A.54.54,0,0,1,131.32,65.12Zm-.17,7.93h-.83V67.32h.83Z"/><path class="cls-3" d="M133.62,67.32c0,.16,0,.33,0,.52s0,.34,0,.46h0a2,2,0,0,1,.8-.81,2.29,2.29,0,0,1,1.16-.31,2,2,0,0,1,1.63.65,2.53,2.53,0,0,1,.55,1.71v3.51H137V69.88a4.15,4.15,0,0,0-.08-.82,1.77,1.77,0,0,0-.25-.63,1.28,1.28,0,0,0-.48-.41,1.64,1.64,0,0,0-.75-.15,1.61,1.61,0,0,0-.64.14,1.69,1.69,0,0,0-.56.41,2,2,0,0,0-.39.7,3,3,0,0,0-.14,1v2.94h-.84V68.58c0-.15,0-.35,0-.6s0-.46,0-.66Z"/><path class="cls-3" d="M139.8,74.2a2.8,2.8,0,0,0,.93.74,2.67,2.67,0,0,0,1.26.31,2.73,2.73,0,0,0,1-.18,1.94,1.94,0,0,0,.69-.48,1.91,1.91,0,0,0,.38-.72,3,3,0,0,0,.13-.87V71.92h0a2.23,2.23,0,0,1-.93.84,2.91,2.91,0,0,1-1.23.29,3.16,3.16,0,0,1-1.22-.22,2.84,2.84,0,0,1-.93-.61,2.53,2.53,0,0,1-.6-.92,3.19,3.19,0,0,1-.21-1.16,3.13,3.13,0,0,1,.21-1.15,2.7,2.7,0,0,1,.6-.94,2.76,2.76,0,0,1,.93-.64,3,3,0,0,1,1.22-.23,2.7,2.7,0,0,1,1.22.29,2.32,2.32,0,0,1,.94.84h0v-1h.83V73a4.49,4.49,0,0,1-.13,1,2.52,2.52,0,0,1-.48,1,2.76,2.76,0,0,1-.95.73A3.46,3.46,0,0,1,142,76a3.92,3.92,0,0,1-1.52-.3,3.71,3.71,0,0,1-1.23-.85Zm.16-4.09a2.72,2.72,0,0,0,.14.86,2.15,2.15,0,0,0,.43.71,2,2,0,0,0,.67.48,2.25,2.25,0,0,0,.92.18,2.3,2.3,0,0,0,.88-.16,2.21,2.21,0,0,0,.7-.45,2.18,2.18,0,0,0,.46-.71,2.38,2.38,0,0,0,.16-.91,2.22,2.22,0,0,0-.16-.85,2.29,2.29,0,0,0-.46-.71,2.16,2.16,0,0,0-.7-.49,2.14,2.14,0,0,0-.88-.19,2.26,2.26,0,0,0-.92.19,1.94,1.94,0,0,0-.67.49,2,2,0,0,0-.43.71A2.66,2.66,0,0,0,140,70.11Z"/><path class="cls-3" d="M151.29,65.12a.54.54,0,0,1-.18.42.58.58,0,0,1-.4.17.62.62,0,0,1-.41-.17.58.58,0,0,1,0-.84.62.62,0,0,1,.41-.17.58.58,0,0,1,.4.17A.54.54,0,0,1,151.29,65.12Zm-.17,7.93h-.83V67.32h.83Z"/><path class="cls-3" d="M153.6,67.32c0,.16,0,.33,0,.52s0,.34,0,.46h0a1.92,1.92,0,0,1,.79-.81,2.33,2.33,0,0,1,1.17-.31,2,2,0,0,1,1.63.65,2.58,2.58,0,0,1,.54,1.71v3.51H157V69.88a4.18,4.18,0,0,0-.07-.82,1.77,1.77,0,0,0-.25-.63,1.28,1.28,0,0,0-.48-.41,1.67,1.67,0,0,0-.75-.15,1.57,1.57,0,0,0-.64.14,1.59,1.59,0,0,0-.56.41,2,2,0,0,0-.39.7,3,3,0,0,0-.15,1v2.94h-.83V68.58c0-.15,0-.35,0-.6s0-.46,0-.66Z"/><path class="cls-3" d="M165.74,73.05h-.88V69.32l-3.24-4.93h1.1l2.61,4.19L168,64.39h1l-3.24,4.93Z"/><path class="cls-3" d="M173.94,70.19a3.17,3.17,0,0,1-.23,1.2,2.92,2.92,0,0,1-.63,1,2.81,2.81,0,0,1-1,.63,3.38,3.38,0,0,1-2.45,0,2.81,2.81,0,0,1-1-.63,2.92,2.92,0,0,1-.63-1,3.17,3.17,0,0,1-.23-1.2,3.09,3.09,0,0,1,.23-1.2,2.86,2.86,0,0,1,.63-1,2.81,2.81,0,0,1,1-.63,3.52,3.52,0,0,1,2.45,0,2.81,2.81,0,0,1,1,.63,2.86,2.86,0,0,1,.63,1A3.09,3.09,0,0,1,173.94,70.19Zm-.88,0a2.44,2.44,0,0,0-.16-.9,2.18,2.18,0,0,0-.43-.74,2,2,0,0,0-.69-.49,2.2,2.2,0,0,0-.9-.19,2.13,2.13,0,0,0-.9.19,2,2,0,0,0-.68.49,2.18,2.18,0,0,0-.43.74,2.44,2.44,0,0,0-.16.9,2.51,2.51,0,0,0,.16.9,2.14,2.14,0,0,0,.43.73,2,2,0,0,0,.68.49,2.13,2.13,0,0,0,.9.18,2.19,2.19,0,0,0,.9-.18,2,2,0,0,0,.69-.49,2.14,2.14,0,0,0,.43-.73A2.51,2.51,0,0,0,173.06,70.19Z"/><path class="cls-3" d="M179.39,73.05c0-.16,0-.33,0-.52s0-.34,0-.46h0a1.87,1.87,0,0,1-.79.81,2.34,2.34,0,0,1-1.17.32,2,2,0,0,1-1.63-.65,2.6,2.6,0,0,1-.54-1.72V67.32H176v3.17a4.11,4.11,0,0,0,.07.82,1.63,1.63,0,0,0,.25.63,1.2,1.2,0,0,0,.48.41,1.67,1.67,0,0,0,.75.15,1.57,1.57,0,0,0,.64-.14,1.48,1.48,0,0,0,.56-.41,2.08,2.08,0,0,0,.39-.69,3,3,0,0,0,.15-1V67.32h.83v4.47c0,.15,0,.35,0,.6s0,.46,0,.66Z"/><path class="cls-3" d="M184.92,68h-1.61v3.34a2,2,0,0,0,.06.53.77.77,0,0,0,.18.32.57.57,0,0,0,.27.16,1.27,1.27,0,0,0,.34,0,1.12,1.12,0,0,0,.36,0,1.4,1.4,0,0,0,.36-.13l0,.72a2.42,2.42,0,0,1-.46.13,2.82,2.82,0,0,1-.52,0,2.25,2.25,0,0,1-.49-.06,1.21,1.21,0,0,1-.47-.23,1.23,1.23,0,0,1-.36-.47,1.68,1.68,0,0,1-.14-.77V68h-1.19v-.7h1.19V65.71h.83v1.61h1.61Z"/><path class="cls-3" d="M187.1,68.27a1.7,1.7,0,0,1,.77-.8,2.31,2.31,0,0,1,1.15-.29,2,2,0,0,1,1.63.65,2.53,2.53,0,0,1,.55,1.71v3.51h-.83V69.88a4.15,4.15,0,0,0-.08-.82,1.77,1.77,0,0,0-.25-.63,1.28,1.28,0,0,0-.48-.41,1.67,1.67,0,0,0-.75-.15,1.61,1.61,0,0,0-.64.14,1.69,1.69,0,0,0-.56.41,2,2,0,0,0-.39.7,3,3,0,0,0-.15,1v2.94h-.83V63.8h.83v4.47Z"/><polygon class="cls-1" points="37.67 5.61 36.79 7.79 38.04 7.57 37.68 5.61 37.67 5.61"/><polygon points="30.17 10.76 29.66 9.47 31.27 8.81 31.15 8.51 29.53 9.17 29.07 8.02 30.8 7.32 30.68 7.01 28.61 7.86 29.96 11.2 32.08 10.33 31.96 10.03 30.17 10.76"/><path d="M28.51,10.31a.83.83,0,0,0-.35-.15,1.7,1.7,0,0,0-.39,0l-.4.06-.3,0h-.28a.63.63,0,0,1-.24-.09.56.56,0,0,1-.19-.23.66.66,0,0,1,0-.57.72.72,0,0,1,.17-.22A.82.82,0,0,1,26.74,9a.94.94,0,0,1,.44-.12,1,1,0,0,1,.38.1l.15-.34a1,1,0,0,0-.48-.1,1.42,1.42,0,0,0-.62.17,1.72,1.72,0,0,0-.33.24,1.2,1.2,0,0,0-.25.33,1.07,1.07,0,0,0-.1.4.88.88,0,0,0,.11.45,1,1,0,0,0,.26.33,1,1,0,0,0,.32.15,1.45,1.45,0,0,0,.36,0l.37,0,.34-.05a1.07,1.07,0,0,1,.31,0,.62.62,0,0,1,.27.09.75.75,0,0,1,.21.25.66.66,0,0,1,.07.3,1,1,0,0,1-.07.29,1,1,0,0,1-.9.51.88.88,0,0,1-.43-.14l-.18.36a1.48,1.48,0,0,0,.63.13l.32-.06a1.88,1.88,0,0,0,.3-.12,1.19,1.19,0,0,0,.35-.25,1,1,0,0,0,.25-.34.91.91,0,0,0,.09-.41,1,1,0,0,0-.12-.46A.85.85,0,0,0,28.51,10.31Z"/><polygon points="39.41 7.18 39.44 7.47 40.57 7.33 40.54 7.04 39.41 7.18"/><polygon points="33.03 9.69 32.62 8.37 34.29 7.85 34.19 7.54 32.52 8.05 32.16 6.87 33.95 6.32 33.85 6.01 31.72 6.67 32.77 10.11 34.97 9.43 34.87 9.12 33.03 9.69"/><path d="M38.91,7.42l-.52.09L38,5.14l-.47.08-1.08,2.6.06.35,1.63-.28.15.86.35-.06-.15-.86L39,7.74Zm-2.12.37.88-2.18h0l.36,2Z"/><polygon points="15.85 16.77 18.13 18.82 18.12 18.83 14.41 18.3 14.09 18.63 16.77 21.05 17.02 20.78 14.72 18.7 14.72 18.7 18.46 19.24 18.78 18.91 16.1 16.5 15.85 16.77"/><polygon points="7.62 29.66 9.1 30.18 8.45 32.04 6.98 31.51 6.86 31.86 10.25 33.07 10.37 32.73 8.77 32.15 9.41 30.3 11.02 30.87 11.14 30.52 7.74 29.31 7.62 29.66"/><polygon points="11.85 22.21 11.57 22.04 10.13 24.41 10.41 24.58 11.03 23.55 13.82 25.27 14.01 24.96 11.22 23.24 11.85 22.21"/><polygon points="14.93 23 13.81 22.18 14.84 20.77 14.58 20.58 13.55 21.99 12.56 21.25 13.65 19.74 13.39 19.55 12.08 21.36 14.98 23.49 16.33 21.64 16.07 21.45 14.93 23"/><polygon points="6.92 32.79 6.6 32.71 5.88 35.39 6.2 35.47 6.51 34.31 9.69 35.12 9.78 34.77 6.61 33.95 6.92 32.79"/><polygon points="22.53 15.18 21.71 14.06 23.11 13.01 22.91 12.74 21.52 13.8 20.79 12.8 22.28 11.67 22.09 11.41 20.31 12.76 22.43 15.67 24.26 14.28 24.07 14.02 22.53 15.18"/><path d="M26.16,12a.81.81,0,0,0-.67-.44,1.7,1.7,0,0,0-.39,0l-.39.09-.3.07a.84.84,0,0,1-.27,0,.55.55,0,0,1-.25-.07.48.48,0,0,1-.2-.2.51.51,0,0,1-.1-.3.68.68,0,0,1,.19-.51.67.67,0,0,1,.2-.18.86.86,0,0,1,.43-.15.84.84,0,0,1,.39.06l.12-.36a1.08,1.08,0,0,0-.49-.05,1.42,1.42,0,0,0-.6.22,1.54,1.54,0,0,0-.31.27,1.15,1.15,0,0,0-.22.35,1.1,1.1,0,0,0-.07.41,1,1,0,0,0,.15.44.82.82,0,0,0,.28.3.89.89,0,0,0,.34.13,1.47,1.47,0,0,0,.36,0l.36-.08.34-.08a.82.82,0,0,1,.31,0,.68.68,0,0,1,.27.07.61.61,0,0,1,.22.23.6.6,0,0,1,.1.3,1,1,0,0,1,0,.29,1.28,1.28,0,0,1-.15.25,1.24,1.24,0,0,1-.22.18.92.92,0,0,1-.48.16,1.06,1.06,0,0,1-.45-.1l-.14.36a.84.84,0,0,0,.31.08.86.86,0,0,0,.32,0,1.18,1.18,0,0,0,.31-.08,1.59,1.59,0,0,0,.29-.15,1.4,1.4,0,0,0,.33-.27,1.17,1.17,0,0,0,.22-.37.94.94,0,0,0-.1-.87Z"/><polygon points="18.98 13.8 21.02 16.09 21.01 16.1 17.41 15.21 17.07 15.52 19.47 18.21 19.74 17.96 17.68 15.65 17.69 15.64 21.3 16.55 21.64 16.25 19.25 13.56 18.98 13.8"/><polygon points="43.6 4.64 43.66 6.2 41.7 6.28 41.64 4.72 41.27 4.74 41.42 8.33 41.78 8.32 41.71 6.62 43.68 6.54 43.74 8.24 44.11 8.23 43.97 4.63 43.6 4.64"/><polygon points="11.38 29.16 10.12 28.57 10.89 27 10.6 26.87 9.83 28.43 8.71 27.91 9.53 26.23 9.24 26.09 8.25 28.1 11.51 29.62 12.53 27.57 12.23 27.43 11.38 29.16"/><path class="cls-1" d="M64,11.26a1.32,1.32,0,0,0,0-.56,1.4,1.4,0,0,0-.28-.54,1.82,1.82,0,0,0-.55-.46l-.64-.36-1.42,2.59.63.35a1.69,1.69,0,0,0,.68.24,1.47,1.47,0,0,0,.6,0,1.57,1.57,0,0,0,.49-.27,1.44,1.44,0,0,0,.34-.43A1.61,1.61,0,0,0,64,11.26Z"/><path class="cls-1" d="M72.7,20a1.82,1.82,0,0,0,.51-.34,1.92,1.92,0,0,0,.37-.48,1.53,1.53,0,0,0,.17-.55,1.65,1.65,0,0,0-.07-.58,1.41,1.41,0,0,0-.33-.54A1.5,1.5,0,0,0,72.26,17a1.46,1.46,0,0,0-.57.12,2,2,0,0,0-.51.33,2.06,2.06,0,0,0-.37.48,1.65,1.65,0,0,0-.17.56,1.6,1.6,0,0,0,.07.57,1.65,1.65,0,0,0,.33.55,1.51,1.51,0,0,0,.52.37,1.46,1.46,0,0,0,.57.12A1.94,1.94,0,0,0,72.7,20Z"/><polygon class="cls-1" points="66.33 14.04 66.76 12.01 65.02 13.13 66.33 14.04"/><path class="cls-1" d="M52.14,5.77a1.47,1.47,0,0,0-.59-.24,1.52,1.52,0,0,0-.64,0,1.32,1.32,0,0,0-.52.25,1.46,1.46,0,0,0-.38.44,2,2,0,0,0-.21.57,1.78,1.78,0,0,0,0,.61A1.4,1.4,0,0,0,50,8a1.34,1.34,0,0,0,.4.42,1.63,1.63,0,0,0,.59.24,1.52,1.52,0,0,0,.64,0,1.32,1.32,0,0,0,.52-.25,1.46,1.46,0,0,0,.38-.44,2,2,0,0,0,.21-.57,1.78,1.78,0,0,0,0-.61,1.52,1.52,0,0,0-.2-.55A1.42,1.42,0,0,0,52.14,5.77Z"/><polygon points="74.1 25.18 74.25 25.43 75.49 25.15 75.3 24.84 74.1 25.18"/><polygon points="75.36 20.31 74.08 23.83 74.34 24.2 77.26 22.08 77.05 21.79 74.56 23.59 74.56 23.58 75.82 20.08 75.55 19.71 72.63 21.82 72.84 22.12 75.35 20.3 75.36 20.31"/><polygon points="79.22 25.4 76.04 27.08 76.2 27.41 79.39 25.72 79.22 25.4"/><path d="M72.82,20.38a2.15,2.15,0,0,0,.65-.41,1.93,1.93,0,0,0,.46-.62A1.82,1.82,0,0,0,74,18a1.81,1.81,0,0,0-.4-.64,1.86,1.86,0,0,0-.61-.45,1.59,1.59,0,0,0-.69-.17,1.73,1.73,0,0,0-.71.11,2,2,0,0,0-.66.41,2,2,0,0,0-.46.62,1.84,1.84,0,0,0-.17.69,1.87,1.87,0,0,0,.11.7,2,2,0,0,0,.4.65,2.14,2.14,0,0,0,.61.45,1.94,1.94,0,0,0,.7.17A2,2,0,0,0,72.82,20.38ZM71.56,20a1.51,1.51,0,0,1-.52-.37,1.65,1.65,0,0,1-.33-.55,1.6,1.6,0,0,1-.07-.57,1.65,1.65,0,0,1,.17-.56,2.06,2.06,0,0,1,.37-.48,2,2,0,0,1,.51-.33,1.46,1.46,0,0,1,.57-.12,1.5,1.5,0,0,1,1.09.49,1.41,1.41,0,0,1,.33.54,1.65,1.65,0,0,1,.07.58,1.53,1.53,0,0,1-.17.55,1.92,1.92,0,0,1-.37.48,1.82,1.82,0,0,1-.51.34,1.94,1.94,0,0,1-.57.12A1.46,1.46,0,0,1,71.56,20Z"/><path d="M81.84,31.69a1.58,1.58,0,0,0-.55-.45,1.78,1.78,0,0,0-.69-.2,2,2,0,0,0-.76.09,1.93,1.93,0,0,0-.68.36,1.89,1.89,0,0,0-.46.56,1.86,1.86,0,0,0-.2.68,2,2,0,0,0,.09.76,1.62,1.62,0,0,0,.19.42,1.26,1.26,0,0,0,.25.31,1.54,1.54,0,0,0,.29.23,2,2,0,0,0,.31.13l.09-.33a1.07,1.07,0,0,1-.52-.32,1.33,1.33,0,0,1-.3-.53,1.38,1.38,0,0,1-.06-.63,1.29,1.29,0,0,1,.19-.55,1.33,1.33,0,0,1,.38-.44A1.73,1.73,0,0,1,80,31.5a1.77,1.77,0,0,1,.6-.08,1.4,1.4,0,0,1,.57.13,1.28,1.28,0,0,1,.46.35,1.38,1.38,0,0,1,.31.56,1.8,1.8,0,0,1,.06.32,2.64,2.64,0,0,1,0,.29,1.6,1.6,0,0,1-.08.26,1.76,1.76,0,0,1-.12.2l.3.22a.9.9,0,0,0,.16-.29,1.3,1.3,0,0,0,.08-.34,1.61,1.61,0,0,0,0-.38,1.78,1.78,0,0,0-.07-.39A1.92,1.92,0,0,0,81.84,31.69Z"/><polygon points="80.98 29.16 78.17 30.39 78.17 30.38 80.16 27.22 79.98 26.8 76.68 28.24 76.82 28.58 79.66 27.34 79.66 27.35 77.64 30.52 77.82 30.94 81.12 29.5 80.98 29.16"/><path d="M79.42,35.23a.23.23,0,0,0-.17.12.28.28,0,0,0,.1.38.24.24,0,0,0,.2,0,.3.3,0,0,0,.17-.12.25.25,0,0,0,0-.21.23.23,0,0,0-.13-.17A.24.24,0,0,0,79.42,35.23Z"/><path d="M64.19,12a1.79,1.79,0,0,0,.23-.77,1.68,1.68,0,0,0-.11-.71,1.88,1.88,0,0,0-.37-.6,2.18,2.18,0,0,0-.53-.43l-1-.58L60.63,12l1,.59a2,2,0,0,0,.65.23,1.67,1.67,0,0,0,1.34-.27A1.69,1.69,0,0,0,64.19,12ZM63,12.48a1.47,1.47,0,0,1-.6,0,1.69,1.69,0,0,1-.68-.24l-.63-.35,1.42-2.59.64.36a1.82,1.82,0,0,1,.55.46,1.4,1.4,0,0,1,.28.54,1.32,1.32,0,0,1,0,.56,1.61,1.61,0,0,1-.18.52,1.44,1.44,0,0,1-.34.43A1.57,1.57,0,0,1,63,12.48Z"/><path d="M56.81,6.61l-.64,2.12a1.78,1.78,0,0,1-.17.4,1.08,1.08,0,0,1-.26.3.85.85,0,0,1-.36.16,1,1,0,0,1-.47,0,1,1,0,0,1-.42-.23A.81.81,0,0,1,54.28,9a1,1,0,0,1-.06-.4,1.56,1.56,0,0,1,.08-.42L54.93,6l-.35-.1-.65,2.16a2.19,2.19,0,0,0-.08.47,1.43,1.43,0,0,0,.07.51,1.22,1.22,0,0,0,.3.46,1.33,1.33,0,0,0,.59.33,1.37,1.37,0,0,0,.68.06A1.1,1.1,0,0,0,56,9.7a1.24,1.24,0,0,0,.34-.38,1.68,1.68,0,0,0,.19-.44l.65-2.16Z"/><path d="M52.31,5.48a2,2,0,0,0-.71-.27,1.94,1.94,0,0,0-.76,0,1.81,1.81,0,0,0-.65.28A1.74,1.74,0,0,0,49.7,6a1.9,1.9,0,0,0-.28.72,2,2,0,0,0,0,.78,1.81,1.81,0,0,0,.28.65,1.74,1.74,0,0,0,.52.49,1.86,1.86,0,0,0,.71.28,2.15,2.15,0,0,0,.76,0,1.82,1.82,0,0,0,.65-.29,1.63,1.63,0,0,0,.49-.52,1.9,1.9,0,0,0,.28-.72,2,2,0,0,0,0-.77A1.94,1.94,0,0,0,52.83,6,1.87,1.87,0,0,0,52.31,5.48Zm.43,1.86a2,2,0,0,1-.21.57,1.46,1.46,0,0,1-.38.44,1.32,1.32,0,0,1-.52.25,1.52,1.52,0,0,1-.64,0,1.63,1.63,0,0,1-.59-.24A1.34,1.34,0,0,1,50,8a1.4,1.4,0,0,1-.2-.54,1.78,1.78,0,0,1,0-.61A2,2,0,0,1,50,6.24a1.46,1.46,0,0,1,.38-.44,1.32,1.32,0,0,1,.52-.25,1.52,1.52,0,0,1,.64,0,1.47,1.47,0,0,1,.59.24,1.42,1.42,0,0,1,.4.41,1.52,1.52,0,0,1,.2.55A1.78,1.78,0,0,1,52.74,7.34Z"/><polygon points="60.79 8.14 59.61 10.98 59.6 10.97 58.85 7.33 58.42 7.16 57.04 10.48 57.38 10.62 58.57 7.76 58.58 7.77 59.32 11.43 59.74 11.61 61.13 8.29 60.79 8.14"/><path d="M66.85,11.58l-3.32,2.08.33.23.86-.56,1.53,1.07-.21,1,.33.24.77-3.86ZM66.32,14,65,13.13,66.76,12Z"/><polygon points="46.42 8.32 46.79 8.35 46.92 6.64 48.59 6.78 48.61 6.45 46.94 6.32 47.03 5.08 48.83 5.22 48.86 4.89 46.69 4.72 46.42 8.32"/><polygon points="70.45 14.76 70.66 14.51 68.5 12.76 68.3 13.01 69.23 13.77 67.15 16.3 67.44 16.53 69.52 14 70.45 14.76"/><polygon points="71.19 15.04 68.74 17.68 69.01 17.93 71.46 15.29 71.19 15.04"/></svg>