<?xml version="1.0" standalone="no"?>
<!DOCTYPE svg PUBLIC "-//W3C//DTD SVG 20010904//EN"
 "http://www.w3.org/TR/2001/REC-SVG-20010904/DTD/svg10.dtd">
<svg version="1.0" xmlns="http://www.w3.org/2000/svg"
 width="576.000000pt" height="576.000000pt" viewBox="0 0 576.000000 576.000000"
 preserveAspectRatio="xMidYMid meet">
<metadata>
Created by potrace 1.14, written by Peter Selinger 2001-2017
</metadata>
<g transform="translate(0.000000,576.000000) scale(0.100000,-0.100000)"
fill="#000000" stroke="none">
<path d="M3556 5675 c-242 -46 -473 -167 -659 -345 l-92 -88 -65 60 c-215 199
-534 328 -807 328 -167 0 -412 -58 -568 -135 -168 -83 -272 -181 -479 -453
-81 -106 -126 -154 -197 -212 -235 -190 -302 -259 -393 -404 -161 -257 -206
-638 -109 -936 47 -143 146 -312 232 -394 l30 -29 -59 -64 c-225 -240 -354
-614 -321 -927 28 -258 120 -453 288 -611 210 -196 265 -258 428 -475 217
-288 348 -424 480 -492 263 -137 562 -149 835 -34 79 34 263 148 290 181 12
14 18 3 52 -87 96 -256 177 -377 294 -440 95 -51 145 -58 426 -58 273 0 329 6
415 47 110 51 218 187 239 299 l6 34 108 0 c273 0 508 88 719 270 121 104 242
272 293 407 19 50 45 82 188 228 92 94 190 204 219 245 170 242 253 553 221
840 -29 275 -132 493 -318 674 l-61 59 48 59 c274 338 335 794 156 1164 -93
192 -226 334 -457 487 -154 103 -176 125 -228 227 -136 272 -382 470 -691 556
-120 33 -340 42 -463 19z"/>
</g>
</svg>
